<svg width="290" height="305" viewBox="0 0 290 305" fill="none" xmlns="http://www.w3.org/2000/svg">
<path d="M145 288.253C224.599 288.253 289.127 223.725 289.127 144.127C289.127 64.5276 224.599 0 145 0C65.4012 0 0.873535 64.5276 0.873535 144.127C0.873535 223.725 65.4012 288.253 145 288.253Z" fill="#EBECFF"/>
<path d="M188.874 120.125C188.874 130.999 184.554 141.427 176.865 149.116C169.176 156.805 158.747 161.125 147.874 161.125C137 161.125 126.571 156.805 118.882 149.116C111.193 141.427 106.874 130.999 106.874 120.125C106.874 109.251 111.193 98.8226 118.882 91.1336C126.571 83.4446 137 79.125 147.874 79.125C158.747 79.125 169.176 83.4446 176.865 91.1336C184.554 98.8226 188.874 109.251 188.874 120.125Z" fill="#0006D1"/>
<path opacity="0.5" d="M173.263 283.305C165.821 283.848 157.406 284.125 147.874 284.125C65.8735 284.125 65.8735 263.471 65.8735 238C65.8735 212.529 102.589 191.875 147.874 191.875C177.394 191.875 203.285 200.649 217.717 213.82C212.428 212.375 205.007 212.375 193.999 212.375C177.086 212.375 168.63 212.375 163.382 217.633C158.124 222.881 158.124 231.338 158.124 248.25C158.124 265.162 158.124 273.619 163.382 278.867C165.811 281.306 168.937 282.598 173.263 283.305Z" fill="#7E81FF"/>
<path fill-rule="evenodd" clip-rule="evenodd" d="M193.999 284.125C177.086 284.125 168.63 284.125 163.382 278.867C158.124 273.619 158.124 265.162 158.124 248.25C158.124 231.337 158.124 222.881 163.382 217.633C168.63 212.375 177.086 212.375 193.999 212.375C210.911 212.375 219.367 212.375 224.615 217.633C229.874 222.881 229.874 231.337 229.874 248.25C229.874 265.162 229.874 273.619 224.615 278.867C219.367 284.125 210.911 284.125 193.999 284.125ZM199.974 232.301C199.974 230.716 199.345 229.196 198.224 228.076C197.103 226.955 195.583 226.325 193.999 226.325C192.414 226.325 190.894 226.955 189.773 228.076C188.652 229.196 188.023 230.716 188.023 232.301V242.274H178.05C176.465 242.274 174.945 242.904 173.824 244.025C172.703 245.145 172.074 246.665 172.074 248.25C172.074 249.835 172.703 251.355 173.824 252.475C174.945 253.596 176.465 254.226 178.05 254.226H188.023V264.199C188.023 265.784 188.652 267.304 189.773 268.424C190.894 269.545 192.414 270.175 193.999 270.175C195.583 270.175 197.103 269.545 198.224 268.424C199.345 267.304 199.974 265.784 199.974 264.199V254.226H209.948C211.532 254.226 213.052 253.596 214.173 252.475C215.294 251.355 215.923 249.835 215.923 248.25C215.923 246.665 215.294 245.145 214.173 244.025C213.052 242.904 211.532 242.274 209.948 242.274H199.974V232.301Z" fill="#0006D1"/>
</svg>
