<svg width="15" height="16" viewBox="0 0 15 16" fill="none" xmlns="http://www.w3.org/2000/svg">
<path d="M9.0187 12.2627C8.89995 12.2627 8.7812 12.2189 8.68745 12.1252C8.5062 11.9439 8.5062 11.6439 8.68745 11.4627L12.15 8.0002L8.68745 4.5377C8.5062 4.35645 8.5062 4.05645 8.68745 3.8752C8.8687 3.69395 9.1687 3.69395 9.34995 3.8752L13.1437 7.66895C13.325 7.8502 13.325 8.1502 13.1437 8.33145L9.34995 12.1252C9.2562 12.2189 9.13745 12.2627 9.0187 12.2627Z" fill="#FAFAFA"/>
<path d="M12.7063 8.46875H2.1875C1.93125 8.46875 1.71875 8.25625 1.71875 8C1.71875 7.74375 1.93125 7.53125 2.1875 7.53125H12.7063C12.9625 7.53125 13.175 7.74375 13.175 8C13.175 8.25625 12.9625 8.46875 12.7063 8.46875Z" fill="#FAFAFA"/>
</svg>
