<svg width="54" height="54" viewBox="0 0 54 54" fill="none" xmlns="http://www.w3.org/2000/svg">
<rect x="2.66743" y="3.17134" width="48.0137" height="48.0137" rx="24.0069" fill="#BDE0F8"/>
<rect x="2.66743" y="3.17134" width="48.0137" height="48.0137" rx="24.0069" stroke="#DEEFFC" stroke-width="5.33486"/>
<path d="M18.6719 23.1778C18.1251 23.1778 17.6716 22.7243 17.6716 22.1775V19.5101C17.6716 18.9632 18.1251 18.5098 18.6719 18.5098C19.2187 18.5098 19.6722 18.9632 19.6722 19.5101V22.1775C19.6722 22.7243 19.2187 23.1778 18.6719 23.1778Z" fill="#0167AC"/>
<path d="M24.0069 23.1778C23.4601 23.1778 23.0066 22.7243 23.0066 22.1775V19.5101C23.0066 18.9632 23.4601 18.5098 24.0069 18.5098C24.5537 18.5098 25.0072 18.9632 25.0072 19.5101V22.1775C25.0072 22.7243 24.5537 23.1778 24.0069 23.1778Z" fill="#0167AC"/>
<path d="M30.6755 41.5167H22.6732C15.4311 41.5167 12.3369 38.4225 12.3369 31.1804V23.1781C12.3369 15.936 15.4311 12.8418 22.6732 12.8418H30.6755C37.9176 12.8418 41.0118 15.936 41.0118 23.1781V31.1804C41.0118 38.4225 37.9176 41.5167 30.6755 41.5167ZM22.6732 14.8424C16.5248 14.8424 14.3375 17.0297 14.3375 23.1781V31.1804C14.3375 37.3288 16.5248 39.5161 22.6732 39.5161H30.6755C36.8239 39.5161 39.0112 37.3288 39.0112 31.1804V23.1781C39.0112 17.0297 36.8239 14.8424 30.6755 14.8424H22.6732Z" fill="#0167AC"/>
<path d="M18.6719 36.1817C18.1251 36.1817 17.6716 35.7282 17.6716 35.1814V32.514C17.6716 31.9671 18.1251 31.5137 18.6719 31.5137C19.2187 31.5137 19.6722 31.9671 19.6722 32.514V35.1814C19.6722 35.7282 19.2187 36.1817 18.6719 36.1817Z" fill="#0167AC"/>
<path d="M24.0069 36.1817C23.4601 36.1817 23.0066 35.7282 23.0066 35.1814V32.514C23.0066 31.9671 23.4601 31.5137 24.0069 31.5137C24.5537 31.5137 25.0072 31.9671 25.0072 32.514V35.1814C25.0072 35.7282 24.5537 36.1817 24.0069 36.1817Z" fill="#0167AC"/>
<path d="M34.6765 21.8443H29.3416C28.7948 21.8443 28.3413 21.3909 28.3413 20.844C28.3413 20.2972 28.7948 19.8438 29.3416 19.8438H34.6765C35.2233 19.8438 35.6767 20.2972 35.6767 20.844C35.6767 21.3909 35.2233 21.8443 34.6765 21.8443Z" fill="#0167AC"/>
<path d="M34.6765 34.8482H29.3416C28.7948 34.8482 28.3413 34.3948 28.3413 33.8479C28.3413 33.3011 28.7948 32.8477 29.3416 32.8477H34.6765C35.2233 32.8477 35.6767 33.3011 35.6767 33.8479C35.6767 34.3948 35.2233 34.8482 34.6765 34.8482Z" fill="#0167AC"/>
<path d="M40.0115 28.1783H13.3372C12.7904 28.1783 12.3369 27.7248 12.3369 27.178C12.3369 26.6312 12.7904 26.1777 13.3372 26.1777H40.0115C40.5583 26.1777 41.0118 26.6312 41.0118 27.178C41.0118 27.7248 40.5583 28.1783 40.0115 28.1783Z" fill="#0167AC"/>
</svg>
