<svg width="54" height="54" viewBox="0 0 54 54" fill="none" xmlns="http://www.w3.org/2000/svg">
<rect x="2.67305" y="3.17134" width="48.0137" height="48.0137" rx="24.0069" fill="#F0E5FF"/>
<rect x="2.67305" y="3.17134" width="48.0137" height="48.0137" rx="24.0069" stroke="#FAF7FF" stroke-width="5.33486"/>
<path d="M30.6811 41.5167H22.6788C15.4367 41.5167 12.3425 38.4225 12.3425 31.1804V23.1781C12.3425 15.936 15.4367 12.8418 22.6788 12.8418H30.6811C37.9232 12.8418 41.0174 15.936 41.0174 23.1781V31.1804C41.0174 38.4225 37.9232 41.5167 30.6811 41.5167ZM22.6788 14.8424C16.5304 14.8424 14.3431 17.0297 14.3431 23.1781V31.1804C14.3431 37.3288 16.5304 39.5161 22.6788 39.5161H30.6811C36.8295 39.5161 39.0168 37.3288 39.0168 31.1804V23.1781C39.0168 17.0297 36.8295 14.8424 30.6811 14.8424H22.6788Z" fill="#6E2ADA"/>
<path d="M26.6801 36.4484C26.36 36.4484 26.0399 36.3683 25.7731 36.2216C24.226 35.3814 21.4919 34.4744 19.7714 34.2477L19.518 34.2077C18.211 34.0476 17.1707 32.874 17.1707 31.5269V21.2573C17.1707 20.4971 17.4908 19.7636 18.0376 19.2567C18.5978 18.7499 19.3179 18.4965 20.0915 18.5632C22.0387 18.7233 24.8662 19.6569 26.5334 20.6972L26.6667 20.7772L26.7201 20.7372C28.4006 19.6836 31.228 18.7366 33.1886 18.5632C33.2153 18.5632 33.2953 18.5632 33.3219 18.5632C34.0155 18.4965 34.7623 18.7633 35.3092 19.2567C35.8693 19.7636 36.1761 20.4704 36.1761 21.244V31.5002C36.1761 32.834 35.1358 34.0076 33.8154 34.181L33.5354 34.221C31.8282 34.4478 29.0807 35.3547 27.5603 36.195C27.3069 36.3817 27.0001 36.4484 26.6801 36.4484ZM19.8648 20.5771C19.6781 20.5771 19.518 20.6438 19.3979 20.7505C19.2512 20.8839 19.1846 21.0706 19.1846 21.2707V31.5403C19.1846 31.8603 19.478 32.1938 19.7848 32.2338L20.0382 32.2738C21.9854 32.5406 24.9729 33.5142 26.7068 34.4611C28.3205 33.5275 31.3214 32.5272 33.282 32.2738L33.5753 32.2338C33.8821 32.1938 34.1755 31.8603 34.1755 31.5403V21.284C34.1755 21.0706 34.0955 20.8972 33.9622 20.7639C33.8155 20.6305 33.6287 20.5771 33.4153 20.5905C33.3886 20.5905 33.3086 20.5905 33.282 20.5905C31.7348 20.7238 29.1875 21.5774 27.8004 22.4577L27.667 22.5377C27.0802 22.8978 26.2533 22.8978 25.6931 22.551L25.493 22.431C24.0926 21.5507 21.5453 20.7105 19.9315 20.5771C19.9048 20.5771 19.8915 20.5771 19.8648 20.5771Z" fill="#6E2ADA"/>
<path d="M26.68 35.7275C26.1332 35.7275 25.6797 35.274 25.6797 34.7272V21.9768C25.6797 21.43 26.1332 20.9766 26.68 20.9766C27.2268 20.9766 27.6803 21.43 27.6803 21.9768V34.7272C27.6803 35.2873 27.2268 35.7275 26.68 35.7275Z" fill="#6E2ADA"/>
</svg>
