<svg width="26" height="26" viewBox="0 0 26 26" fill="none" xmlns="http://www.w3.org/2000/svg">
<path d="M13.0002 24.6673C19.4435 24.6673 24.6668 19.444 24.6668 13.0007C24.6668 6.55733 19.4435 1.33398 13.0002 1.33398C6.55684 1.33398 1.3335 6.55733 1.3335 13.0007C1.3335 19.444 6.55684 24.6673 13.0002 24.6673Z" stroke="black" stroke-width="1.5"/>
<path d="M13 6V20M16.5 10.0833C16.5 8.47333 14.9332 7.16667 13 7.16667C11.0668 7.16667 9.5 8.47333 9.5 10.0833C9.5 11.6933 11.0668 13 13 13C14.9332 13 16.5 14.3067 16.5 15.9167C16.5 17.5267 14.9332 18.8333 13 18.8333C11.0668 18.8333 9.5 17.5267 9.5 15.9167" stroke="black" stroke-width="1.5" stroke-linecap="round"/>
</svg>
