<svg width="40" height="40" viewBox="0 0 40 40" fill="none" xmlns="http://www.w3.org/2000/svg">
<rect x="2" y="2" width="36" height="36" rx="18" fill="#BDE0F8"/>
<rect x="2" y="2" width="36" height="36" rx="18" stroke="#DEEFFC" stroke-width="4"/>
<path d="M14 17C13.59 17 13.25 16.66 13.25 16.25V14.25C13.25 13.84 13.59 13.5 14 13.5C14.41 13.5 14.75 13.84 14.75 14.25V16.25C14.75 16.66 14.41 17 14 17Z" fill="#0167AC"/>
<path d="M18 17C17.59 17 17.25 16.66 17.25 16.25V14.25C17.25 13.84 17.59 13.5 18 13.5C18.41 13.5 18.75 13.84 18.75 14.25V16.25C18.75 16.66 18.41 17 18 17Z" fill="#0167AC"/>
<path d="M23 30.75H17C11.57 30.75 9.25 28.43 9.25 23V17C9.25 11.57 11.57 9.25 17 9.25H23C28.43 9.25 30.75 11.57 30.75 17V23C30.75 28.43 28.43 30.75 23 30.75ZM17 10.75C12.39 10.75 10.75 12.39 10.75 17V23C10.75 27.61 12.39 29.25 17 29.25H23C27.61 29.25 29.25 27.61 29.25 23V17C29.25 12.39 27.61 10.75 23 10.75H17Z" fill="#0167AC"/>
<path d="M14 26.75C13.59 26.75 13.25 26.41 13.25 26V24C13.25 23.59 13.59 23.25 14 23.25C14.41 23.25 14.75 23.59 14.75 24V26C14.75 26.41 14.41 26.75 14 26.75Z" fill="#0167AC"/>
<path d="M18 26.75C17.59 26.75 17.25 26.41 17.25 26V24C17.25 23.59 17.59 23.25 18 23.25C18.41 23.25 18.75 23.59 18.75 24V26C18.75 26.41 18.41 26.75 18 26.75Z" fill="#0167AC"/>
<path d="M26 16H22C21.59 16 21.25 15.66 21.25 15.25C21.25 14.84 21.59 14.5 22 14.5H26C26.41 14.5 26.75 14.84 26.75 15.25C26.75 15.66 26.41 16 26 16Z" fill="#0167AC"/>
<path d="M26 25.75H22C21.59 25.75 21.25 25.41 21.25 25C21.25 24.59 21.59 24.25 22 24.25H26C26.41 24.25 26.75 24.59 26.75 25C26.75 25.41 26.41 25.75 26 25.75Z" fill="#0167AC"/>
<path d="M30 20.75H10C9.59 20.75 9.25 20.41 9.25 20C9.25 19.59 9.59 19.25 10 19.25H30C30.41 19.25 30.75 19.59 30.75 20C30.75 20.41 30.41 20.75 30 20.75Z" fill="#0167AC"/>
</svg>
