<svg width="24" height="24" viewBox="0 0 24 24" fill="none" xmlns="http://www.w3.org/2000/svg">
<path d="M12 10.5C12.8284 10.5 13.5 9.82843 13.5 9C13.5 8.17157 12.8284 7.5 12 7.5C11.1716 7.5 10.5 8.17157 10.5 9C10.5 9.82843 11.1716 10.5 12 10.5Z" stroke="#0007FC" stroke-linecap="round"/>
<path d="M15.7009 8.2508C15.7987 8.07884 15.9295 7.92791 16.0859 7.8067C16.2422 7.6855 16.421 7.59642 16.6119 7.54459C16.8028 7.49276 17.0021 7.4792 17.1982 7.5047C17.3944 7.5302 17.5836 7.59425 17.7549 7.69316C17.9262 7.79207 18.0763 7.92389 18.1964 8.08104C18.3166 8.23818 18.4045 8.41754 18.4551 8.60879C18.5056 8.80003 18.5179 8.9994 18.4911 9.19539C18.4643 9.39139 18.399 9.58015 18.2989 9.7508C18.0986 10.0925 17.7712 10.3411 17.3883 10.4424C17.0053 10.5436 16.5979 10.4893 16.2549 10.2912C15.9118 10.0932 15.6611 9.76746 15.5573 9.3852C15.4535 9.00294 15.5051 8.59514 15.7009 8.2508ZM5.70091 8.2508C5.79869 8.07884 5.92951 7.92791 6.08585 7.8067C6.24219 7.6855 6.42096 7.59642 6.61187 7.54459C6.80278 7.49276 7.00206 7.4792 7.19823 7.5047C7.3944 7.5302 7.58359 7.59425 7.7549 7.69316C7.92622 7.79207 8.07628 7.92389 8.19644 8.08104C8.3166 8.23818 8.4045 8.41754 8.45506 8.60879C8.50562 8.80003 8.51786 8.9994 8.49106 9.19539C8.46426 9.39139 8.39896 9.58015 8.29891 9.7508C8.09859 10.0925 7.77123 10.3411 7.38829 10.4424C7.00535 10.5436 6.5979 10.4893 6.25487 10.2912C5.91184 10.0932 5.66107 9.76746 5.55729 9.3852C5.45351 9.00294 5.50514 8.59514 5.70091 8.2508Z" stroke="#0007FC"/>
<path d="M14.0999 13.185L13.8099 12.779L13.2769 13.159L13.7839 13.573L14.0999 13.185ZM19.4999 16H14.4999V17H19.4999V16ZM19.8779 15.629C19.89 15.6713 19.8908 15.716 19.8801 15.7587C19.8693 15.8014 19.8476 15.8404 19.8169 15.872C19.7756 15.9139 19.7262 15.9468 19.6717 15.9689C19.6172 15.9909 19.5587 16.0015 19.4999 16V17C20.2999 17 21.0699 16.317 20.8499 15.396L19.8779 15.629ZM16.4999 13C17.7259 13 18.4899 13.409 18.9819 13.912C19.4879 14.429 19.7469 15.086 19.8779 15.629L20.8499 15.396C20.6959 14.754 20.3749 13.906 19.6969 13.212C19.0039 12.505 17.9769 12 16.4999 12V13ZM14.3899 13.592C14.8679 13.251 15.5399 13 16.4999 13V12C15.3539 12 14.4749 12.303 13.8099 12.779L14.3899 13.592ZM13.7839 13.572C14.4369 14.106 14.7479 14.935 14.8909 15.613L15.8699 15.407C15.7079 14.64 15.3299 13.544 14.4159 12.798L13.7839 13.572ZM14.8909 15.613C14.9015 15.6583 14.9007 15.7045 14.8884 15.7494C14.8762 15.7942 14.853 15.8353 14.8209 15.869C14.7791 15.9114 14.729 15.9449 14.6739 15.9674C14.6187 15.99 14.5595 16.001 14.4999 16V17C15.3039 17 16.0609 16.32 15.8699 15.407L14.8909 15.613ZM9.89992 13.185L10.2159 13.573L10.7229 13.159L10.1909 12.779L9.89992 13.185ZM7.49992 13C8.45992 13 9.13092 13.25 9.60992 13.592L10.1899 12.778C9.52592 12.304 8.64692 12 7.49992 12V13ZM4.12192 15.629C4.25192 15.086 4.51192 14.429 5.01792 13.912C5.50992 13.409 6.27392 13 7.49992 13V12C6.02192 12 4.99592 12.505 4.30292 13.212C3.62492 13.905 3.30292 14.754 3.14992 15.396L4.12192 15.629ZM4.49992 16C4.44114 16.0015 4.38268 15.9909 4.32815 15.9689C4.27363 15.9468 4.2242 15.9139 4.18292 15.872C4.15244 15.8403 4.13085 15.8012 4.12032 15.7585C4.10979 15.7159 4.10968 15.6712 4.12192 15.629L3.14992 15.396C2.92992 16.317 3.69992 17 4.49992 17V16ZM9.49992 16H4.49992V17H9.49992V16ZM9.49992 16C9.44024 16.0013 9.38091 15.9905 9.32555 15.9681C9.2702 15.9458 9.21997 15.9124 9.17792 15.87C9.14583 15.8363 9.12262 15.7952 9.1104 15.7504C9.09818 15.7055 9.09733 15.6583 9.10792 15.613L8.12992 15.407C7.93792 16.319 8.69592 17 9.49992 17V16ZM9.10892 15.613C9.25192 14.933 9.56292 14.106 10.2159 13.573L9.58392 12.798C8.66992 13.544 8.29192 14.64 8.12992 15.407L9.10892 15.613Z" fill="#0007FC"/>
<path d="M18.5 21.5H20C20.3978 21.5 20.7794 21.342 21.0607 21.0607C21.342 20.7794 21.5 20.3978 21.5 20V18.5M18.5 2.5H20C20.3978 2.5 20.7794 2.65804 21.0607 2.93934C21.342 3.22064 21.5 3.60218 21.5 4V5.5M5.5 21.5H4C3.60218 21.5 3.22064 21.342 2.93934 21.0607C2.65804 20.7794 2.5 20.3978 2.5 20V18.5M5.5 2.5H4C3.60218 2.5 3.22064 2.65804 2.93934 2.93934C2.65804 3.22064 2.5 3.60218 2.5 4V5.5M12 12.5C14.364 12.5 15.131 14.325 15.38 15.51C15.494 16.05 15.052 16.5 14.5 16.5H9.5C8.948 16.5 8.506 16.05 8.62 15.51C8.869 14.325 9.636 12.5 12 12.5Z" stroke="#0007FC" stroke-linecap="round"/>
</svg>
