<svg width="20" height="20" viewBox="0 0 20 20" fill="none" xmlns="http://www.w3.org/2000/svg">
<path d="M13.9225 11.4219L10.5892 14.7553C10.2638 15.0807 9.73614 15.0807 9.4107 14.7553L6.07737 11.4219C5.75193 11.0965 5.75193 10.5689 6.07737 10.2434C6.40281 9.91799 6.93045 9.91799 7.25588 10.2434L9.16663 12.1542V2.49935C9.16663 2.03911 9.53972 1.66602 9.99996 1.66602C10.4602 1.66602 10.8333 2.03911 10.8333 2.49935V12.1542L12.744 10.2434C13.0695 9.91799 13.5971 9.91799 13.9225 10.2434C14.248 10.5689 14.248 11.0965 13.9225 11.4219Z" fill="white"/>
<path d="M3.33329 14.5827C3.33329 14.1224 2.9602 13.7493 2.49996 13.7493C2.03972 13.7493 1.66663 14.1224 1.66663 14.5827V15.8327C1.66663 17.6736 3.15901 19.166 4.99996 19.166H15C16.8409 19.166 18.3333 17.6736 18.3333 15.8327V14.5827C18.3333 14.1224 17.9602 13.7493 17.5 13.7493C17.0397 13.7493 16.6666 14.1224 16.6666 14.5827V15.8327C16.6666 16.7532 15.9204 17.4993 15 17.4993H4.99996C4.07948 17.4993 3.33329 16.7532 3.33329 15.8327V14.5827Z" fill="white"/>
</svg>
