<svg width="40" height="40" viewBox="0 0 40 40" fill="none" xmlns="http://www.w3.org/2000/svg">
<rect x="2" y="2" width="36" height="36" rx="18" fill="#FADEEF"/>
<rect x="2" y="2" width="36" height="36" rx="18" stroke="#FFEDF8" stroke-width="4"/>
<path d="M19.9999 30.7499C18.8699 30.7499 17.7899 30.4199 16.9799 29.8099L12.6799 26.5999C11.5399 25.7499 10.6499 23.9799 10.6499 22.5599V15.1199C10.6499 13.5799 11.7799 11.9399 13.2299 11.3999L18.2199 9.52994C19.2099 9.15994 20.7699 9.15994 21.7599 9.52994L26.7599 11.3999C28.2099 11.9399 29.3399 13.5799 29.3399 15.1199V18.5499C29.3399 18.9599 28.9999 19.2999 28.5899 19.2999C28.1799 19.2999 27.8399 18.9599 27.8399 18.5499V15.1199C27.8399 14.2099 27.0899 13.1299 26.2299 12.7999L21.2399 10.9299C20.5799 10.6799 19.4099 10.6799 18.7499 10.9299L13.7599 12.8099C12.8999 13.1299 12.1499 14.2099 12.1499 15.1299V22.5599C12.1499 23.5099 12.8199 24.8399 13.5699 25.3999L17.8699 28.6099C18.4199 29.0199 19.1899 29.2499 19.9899 29.2499C20.3999 29.2499 20.7399 29.5899 20.7399 29.9999C20.7399 30.4099 20.4099 30.7499 19.9999 30.7499Z" fill="#C10074"/>
<path d="M24 28.75C21.38 28.75 19.25 26.62 19.25 24C19.25 21.38 21.38 19.25 24 19.25C26.62 19.25 28.75 21.38 28.75 24C28.75 26.62 26.62 28.75 24 28.75ZM24 20.76C22.21 20.76 20.75 22.22 20.75 24.01C20.75 25.8 22.21 27.26 24 27.26C25.79 27.26 27.25 25.8 27.25 24.01C27.25 22.22 25.79 20.76 24 20.76Z" fill="#C10074"/>
<path d="M29 30C28.93 30 28.87 29.9899 28.8 29.9799C28.74 29.9699 28.68 29.95 28.62 29.92C28.56 29.9 28.5 29.87 28.44 29.83C28.39 29.79 28.34 29.7499 28.29 29.7099C28.11 29.5199 28 29.26 28 29C28 28.87 28.03 28.74 28.08 28.62C28.13 28.5 28.2 28.39 28.29 28.29C28.66 27.92 29.34 27.92 29.71 28.29C29.8 28.39 29.87 28.5 29.92 28.62C29.97 28.74 30 28.87 30 29C30 29.26 29.89 29.5199 29.71 29.7099C29.52 29.8899 29.26 30 29 30Z" fill="#C10074"/>
</svg>
