<svg width="40" height="40" viewBox="0 0 40 40" fill="none" xmlns="http://www.w3.org/2000/svg">
<rect x="2" y="2" width="36" height="36" rx="18" fill="#C2F3EA"/>
<rect x="2" y="2" width="36" height="36" rx="18" stroke="#EDFFFC" stroke-width="4"/>
<path d="M24.2401 30.67C23.8101 30.67 23.2701 30.54 22.6001 30.14L20.3601 28.81C20.1901 28.71 19.8101 28.71 19.6401 28.81L17.4001 30.14C15.9801 30.98 15.1201 30.63 14.7401 30.35C14.3601 30.07 13.7601 29.35 14.1301 27.75L14.6601 25.44C14.7001 25.26 14.6001 24.92 14.4701 24.78L12.6101 22.92C11.6101 21.92 11.6901 21.05 11.8301 20.61C11.9701 20.17 12.4101 19.42 13.8001 19.18L16.1901 18.78C16.3601 18.75 16.6301 18.55 16.7001 18.4L18.0201 15.76C18.6701 14.47 19.5301 14.27 19.9901 14.27C20.4501 14.27 21.3101 14.46 21.9601 15.76L23.2801 18.4C23.3601 18.55 23.6301 18.75 23.7901 18.78L26.1801 19.18C27.5701 19.41 28.0101 20.17 28.1501 20.61C28.2901 21.05 28.3701 21.92 27.3701 22.92L25.5101 24.78C25.3801 24.91 25.2801 25.26 25.3201 25.44L25.8501 27.74C26.2201 29.35 25.6301 30.06 25.2401 30.34C25.0601 30.5 24.7201 30.67 24.2401 30.67ZM20.0001 27.24C20.4001 27.24 20.8001 27.33 21.1201 27.52L23.3601 28.85C23.9501 29.2 24.3001 29.2 24.3701 29.14C24.4501 29.08 24.5501 28.75 24.4001 28.09L23.8701 25.79C23.7101 25.11 23.9701 24.23 24.4601 23.74L26.3201 21.88C26.6901 21.51 26.7701 21.22 26.7301 21.09C26.6901 20.96 26.4601 20.77 25.9401 20.69L23.5501 20.29C22.9101 20.18 22.2301 19.68 21.9401 19.1L20.6201 16.46C20.3901 16.01 20.1401 15.8 19.9901 15.8C19.8401 15.8 19.5901 16 19.3601 16.46L18.0401 19.1C17.7501 19.68 17.0701 20.18 16.4301 20.29L14.0401 20.69C13.5201 20.78 13.2901 20.96 13.2501 21.09C13.2101 21.22 13.2901 21.51 13.6601 21.88L15.5201 23.74C16.0101 24.23 16.2701 25.12 16.1101 25.79L15.5801 28.1C15.4301 28.77 15.5301 29.1 15.6101 29.15C15.6901 29.21 16.0401 29.21 16.6201 28.86L18.8601 27.53C19.2001 27.34 19.6001 27.24 20.0001 27.24Z" fill="#008E75"/>
<path d="M14 17.75C13.59 17.75 13.25 17.41 13.25 17V10C13.25 9.59 13.59 9.25 14 9.25C14.41 9.25 14.75 9.59 14.75 10V17C14.75 17.41 14.41 17.75 14 17.75Z" fill="#008E75"/>
<path d="M26 17.75C25.59 17.75 25.25 17.41 25.25 17V10C25.25 9.59 25.59 9.25 26 9.25C26.41 9.25 26.75 9.59 26.75 10V17C26.75 17.41 26.41 17.75 26 17.75Z" fill="#008E75"/>
<path d="M20 12.75C19.59 12.75 19.25 12.41 19.25 12V10C19.25 9.59 19.59 9.25 20 9.25C20.41 9.25 20.75 9.59 20.75 10V12C20.75 12.41 20.41 12.75 20 12.75Z" fill="#008E75"/>
</svg>
