<svg width="24" height="24" viewBox="0 0 24 24" fill="none" xmlns="http://www.w3.org/2000/svg">
<path d="M5.54 19.5196C4.93 19.5196 4.36 19.3096 3.95 18.9196C3.43 18.4296 3.18 17.6896 3.27 16.8896L3.64 13.6496C3.71 13.0396 4.08 12.2296 4.51 11.7896L12.72 3.09956C14.77 0.929561 16.91 0.869561 19.08 2.91956C21.25 4.96956 21.31 7.10956 19.26 9.27956L11.05 17.9696C10.63 18.4196 9.85 18.8396 9.24 18.9396L6.02 19.4896C5.85 19.4996 5.7 19.5196 5.54 19.5196ZM15.93 2.90956C15.16 2.90956 14.49 3.38956 13.81 4.10956L5.6 12.8096C5.4 13.0196 5.17 13.5196 5.13 13.8096L4.76 17.0496C4.72 17.3796 4.8 17.6496 4.98 17.8196C5.16 17.9896 5.43 18.0496 5.76 17.9996L8.98 17.4496C9.27 17.3996 9.75 17.1396 9.95 16.9296L18.16 8.23956C19.4 6.91956 19.85 5.69956 18.04 3.99956C17.24 3.22956 16.55 2.90956 15.93 2.90956Z" fill="#292D32"/>
<path d="M17.34 10.9508C17.32 10.9508 17.29 10.9508 17.27 10.9508C14.15 10.6408 11.64 8.27083 11.16 5.17083C11.1 4.76083 11.38 4.38083 11.79 4.31083C12.2 4.25083 12.58 4.53083 12.65 4.94083C13.03 7.36083 14.99 9.22083 17.43 9.46083C17.84 9.50083 18.14 9.87083 18.1 10.2808C18.05 10.6608 17.72 10.9508 17.34 10.9508Z" fill="#292D32"/>
<path d="M21 22.75H3C2.59 22.75 2.25 22.41 2.25 22C2.25 21.59 2.59 21.25 3 21.25H21C21.41 21.25 21.75 21.59 21.75 22C21.75 22.41 21.41 22.75 21 22.75Z" fill="#292D32"/>
</svg>
