<svg width="61" height="60" viewBox="0 0 61 60" fill="none" xmlns="http://www.w3.org/2000/svg">
<path d="M0.502319 8.59648C0.502319 3.84877 4.3511 0 9.0988 0H51.9013C56.649 0 60.4977 3.84878 60.4977 8.59648V51.4035C60.4977 56.1512 56.649 60 51.9013 60H9.09879C4.35109 60 0.502319 56.1512 0.502319 51.4035V8.59648Z" fill="#EBECFF"/>
<path d="M18.0893 29.8052C18.1928 29.8829 18.3106 29.9393 18.4359 29.9714C18.5612 30.0035 18.6916 30.0106 18.8196 29.9923C18.9477 29.9741 19.0709 29.9307 19.1822 29.8648C19.2935 29.7989 19.3907 29.7117 19.4683 29.6082C20.0647 28.8131 20.838 28.1677 21.7271 27.7231C22.6161 27.2786 23.5964 27.0472 24.5904 27.0472C25.5844 27.0472 26.5647 27.2786 27.4537 27.7231C28.3428 28.1677 29.1161 28.8131 29.7125 29.6082C29.8694 29.817 30.1028 29.955 30.3615 29.9917C30.6201 30.0284 30.8827 29.9609 31.0915 29.804C31.166 29.7487 31.2319 29.6827 31.2873 29.6082C31.8837 28.8131 32.657 28.1677 33.546 27.7231C34.4351 27.2786 35.4154 27.0472 36.4093 27.0472C37.4033 27.0472 38.3836 27.2786 39.2727 27.7231C40.1617 28.1677 40.935 28.8131 41.5314 29.6082C41.6883 29.8172 41.9218 29.9553 42.1806 29.9922C42.4393 30.029 42.7021 29.9615 42.911 29.8046C43.12 29.6477 43.2581 29.4142 43.295 29.1555C43.3318 28.8968 43.2643 28.634 43.1074 28.425C42.2355 27.2561 41.0729 26.3358 39.735 25.7556C40.4684 25.086 40.9823 24.2102 41.2092 23.2433C41.436 22.2764 41.3652 21.2635 41.0061 20.3376C40.647 19.4116 40.0163 18.6159 39.1968 18.0547C38.3774 17.4936 37.4074 17.1934 36.4143 17.1934C35.4211 17.1934 34.4512 17.4936 33.6317 18.0547C32.8122 18.6159 32.1816 19.4116 31.8224 20.3376C31.4633 21.2635 31.3925 22.2764 31.6194 23.2433C31.8462 24.2102 32.3601 25.086 33.0935 25.7556C32.1276 26.1734 31.2501 26.7714 30.5079 27.5176C29.7657 26.7714 28.8882 26.1734 27.9222 25.7556C28.6557 25.086 29.1695 24.2102 29.3964 23.2433C29.6232 22.2764 29.5524 21.2635 29.1933 20.3376C28.8342 19.4116 28.2035 18.6159 27.3841 18.0547C26.5646 17.4936 25.5946 17.1934 24.6015 17.1934C23.6083 17.1934 22.6384 17.4936 21.8189 18.0547C20.9995 18.6159 20.3688 19.4116 20.0097 20.3376C19.6506 21.2635 19.5798 22.2764 19.8066 23.2433C20.0334 24.2102 20.5473 25.086 21.2808 25.7556C19.9371 26.334 18.7687 27.2549 17.8923 28.4262C17.8147 28.5297 17.7582 28.6475 17.7261 28.7728C17.694 28.8981 17.6869 29.0285 17.7052 29.1565C17.7235 29.2846 17.7668 29.4078 17.8327 29.5191C17.8987 29.6304 17.9858 29.7276 18.0893 29.8052ZM36.4106 19.1671C36.995 19.1671 37.5664 19.3404 38.0523 19.6651C38.5383 19.9898 38.917 20.4513 39.1407 20.9913C39.3643 21.5313 39.4229 22.1254 39.3088 22.6986C39.1948 23.2719 38.9134 23.7984 38.5001 24.2117C38.0868 24.6249 37.5603 24.9064 36.9871 25.0204C36.4139 25.1344 35.8197 25.0759 35.2797 24.8522C34.7398 24.6286 34.2782 24.2498 33.9535 23.7639C33.6288 23.2779 33.4555 22.7066 33.4555 22.1221C33.4555 21.3384 33.7669 20.5868 34.321 20.0326C34.8752 19.4784 35.6268 19.1671 36.4106 19.1671ZM24.5904 19.1671C25.1749 19.1671 25.7462 19.3404 26.2321 19.6651C26.7181 19.9898 27.0969 20.4513 27.3205 20.9913C27.5442 21.5313 27.6027 22.1254 27.4887 22.6986C27.3746 23.2719 27.0932 23.7984 26.6799 24.2117C26.2667 24.6249 25.7401 24.9064 25.1669 25.0204C24.5937 25.1344 23.9995 25.0759 23.4596 24.8522C22.9196 24.6286 22.4581 24.2498 22.1334 23.7639C21.8087 23.2779 21.6354 22.7066 21.6354 22.1221C21.6354 21.3384 21.9467 20.5868 22.5009 20.0326C23.0551 19.4784 23.8067 19.1671 24.5904 19.1671ZM39.735 38.5608C40.4684 37.8911 40.9823 37.0154 41.2092 36.0485C41.436 35.0816 41.3652 34.0687 41.0061 33.1427C40.647 32.2168 40.0163 31.421 39.1968 30.8599C38.3774 30.2988 37.4074 29.9985 36.4143 29.9985C35.4211 29.9985 34.4512 30.2988 33.6317 30.8599C32.8122 31.421 32.1816 32.2168 31.8224 33.1427C31.4633 34.0687 31.3925 35.0816 31.6194 36.0485C31.8462 37.0154 32.3601 37.8911 33.0935 38.5608C32.1276 38.9786 31.2501 39.5765 30.5079 40.3227C29.7657 39.5765 28.8882 38.9786 27.9222 38.5608C28.6557 37.8911 29.1695 37.0154 29.3964 36.0485C29.6232 35.0816 29.5524 34.0687 29.1933 33.1427C28.8342 32.2168 28.2035 31.421 27.3841 30.8599C26.5646 30.2988 25.5946 29.9985 24.6015 29.9985C23.6083 29.9985 22.6384 30.2988 21.8189 30.8599C20.9995 31.421 20.3688 32.2168 20.0097 33.1427C19.6506 34.0687 19.5798 35.0816 19.8066 36.0485C20.0334 37.0154 20.5473 37.8911 21.2808 38.5608C19.9371 39.1392 18.7687 40.0601 17.8923 41.2314C17.8147 41.3349 17.7582 41.4526 17.7261 41.5779C17.694 41.7033 17.6869 41.8337 17.7052 41.9617C17.7235 42.0898 17.7668 42.213 17.8327 42.3243C17.8987 42.4356 17.9858 42.5328 18.0893 42.6104C18.1928 42.688 18.3106 42.7445 18.4359 42.7766C18.5612 42.8087 18.6916 42.8158 18.8196 42.7975C18.9477 42.7792 19.0709 42.7359 19.1822 42.67C19.2935 42.6041 19.3907 42.5169 19.4683 42.4134C20.0647 41.6182 20.838 40.9728 21.7271 40.5283C22.6161 40.0838 23.5964 39.8524 24.5904 39.8524C25.5844 39.8524 26.5647 40.0838 27.4537 40.5283C28.3428 40.9728 29.1161 41.6182 29.7125 42.4134C29.8694 42.6222 30.1028 42.7601 30.3615 42.7969C30.6201 42.8336 30.8827 42.7661 31.0915 42.6092C31.166 42.5539 31.2319 42.4879 31.2873 42.4134C31.8837 41.6182 32.657 40.9728 33.546 40.5283C34.4351 40.0838 35.4154 39.8524 36.4093 39.8524C37.4033 39.8524 38.3836 40.0838 39.2727 40.5283C40.1617 40.9728 40.935 41.6182 41.5314 42.4134C41.6883 42.6224 41.9218 42.7605 42.1806 42.7973C42.4393 42.8342 42.7021 42.7667 42.911 42.6098C43.12 42.4529 43.2581 42.2194 43.295 41.9607C43.3318 41.7019 43.2643 41.4392 43.1074 41.2302C42.2355 40.0613 41.0729 39.141 39.735 38.5608ZM24.5904 31.9723C25.1749 31.9723 25.7462 32.1456 26.2321 32.4703C26.7181 32.795 27.0969 33.2565 27.3205 33.7965C27.5442 34.3364 27.6027 34.9306 27.4887 35.5038C27.3746 36.077 27.0932 36.6036 26.6799 37.0168C26.2667 37.4301 25.7401 37.7116 25.1669 37.8256C24.5937 37.9396 23.9995 37.8811 23.4596 37.6574C22.9196 37.4338 22.4581 37.055 22.1334 36.569C21.8087 36.0831 21.6354 35.5118 21.6354 34.9273C21.6354 34.1436 21.9467 33.392 22.5009 32.8378C23.0551 32.2836 23.8067 31.9723 24.5904 31.9723ZM36.4106 31.9723C36.995 31.9723 37.5664 32.1456 38.0523 32.4703C38.5383 32.795 38.917 33.2565 39.1407 33.7965C39.3643 34.3364 39.4229 34.9306 39.3088 35.5038C39.1948 36.077 38.9134 36.6036 38.5001 37.0168C38.0868 37.4301 37.5603 37.7116 36.9871 37.8256C36.4139 37.9396 35.8197 37.8811 35.2797 37.6574C34.7398 37.4338 34.2782 37.055 33.9535 36.569C33.6288 36.0831 33.4555 35.5118 33.4555 34.9273C33.4555 34.1436 33.7669 33.392 34.321 32.8378C34.8752 32.2836 35.6268 31.9723 36.4106 31.9723Z" fill="#282EFF"/>
</svg>
