<svg width="56" height="57" viewBox="0 0 56 57" fill="none" xmlns="http://www.w3.org/2000/svg">
<circle cx="28" cy="28.5" r="28" fill="#F0F2F5"/>
<path d="M21.0002 25.584C21.0002 22.0402 23.873 19.1673 27.4169 19.1673C30.556 19.1673 33.1709 21.4227 33.7251 24.4018C33.8028 24.8195 34.1015 25.162 34.5048 25.2958C36.8274 26.0661 38.5002 28.2562 38.5002 30.834C38.5002 34.0556 35.8885 36.6673 32.6669 36.6673C32.0225 36.6673 31.5002 37.1897 31.5002 37.834C31.5002 38.4783 32.0225 39.0007 32.6669 39.0007C37.1772 39.0007 40.8335 35.3443 40.8335 30.834C40.8335 27.4594 38.7875 24.5655 35.8709 23.3202C34.8729 19.585 31.4672 16.834 27.4169 16.834C22.5844 16.834 18.6669 20.7515 18.6669 25.584C18.6669 25.701 18.6692 25.8175 18.6737 25.9335C16.5791 27.1419 15.1669 29.4053 15.1669 32.0007C15.1669 35.8666 18.3009 39.0007 22.1669 39.0007C22.8112 39.0007 23.3335 38.4783 23.3335 37.834C23.3335 37.1897 22.8112 36.6673 22.1669 36.6673C19.5895 36.6673 17.5002 34.578 17.5002 32.0007C17.5002 30.0671 18.6764 28.4055 20.357 27.6976C20.8433 27.4928 21.1315 26.987 21.0599 26.4642C21.0206 26.177 21.0002 25.8832 21.0002 25.584Z" fill="#475367"/>
<path d="M27.2251 31.1287C27.6671 30.7358 28.3333 30.7358 28.7753 31.1287L30.5253 32.6842C31.0069 33.1123 31.0503 33.8497 30.6222 34.3313C30.2477 34.7526 29.6365 34.8385 29.1669 34.5668V40.1673C29.1669 40.8117 28.6445 41.334 28.0002 41.334C27.3559 41.334 26.8335 40.8117 26.8335 40.1673V34.5668C26.364 34.8385 25.7527 34.7526 25.3782 34.3313C24.9502 33.8497 24.9935 33.1123 25.4751 32.6842L27.2251 31.1287Z" fill="#475367"/>
</svg>
