<svg width="25" height="25" viewBox="0 0 25 25" fill="none" xmlns="http://www.w3.org/2000/svg">
<path d="M17.3799 20.75C15.4599 20.75 13.6499 19.73 12.6699 18.08C12.1499 17.24 11.8799 16.26 11.8799 15.25C11.8799 12.22 14.3499 9.75 17.3799 9.75C20.4099 9.75 22.8799 12.22 22.8799 15.25C22.8799 16.26 22.5999 17.24 22.0799 18.09C21.1099 19.73 19.3099 20.75 17.3799 20.75ZM17.3799 11.25C15.1699 11.25 13.3799 13.04 13.3799 15.25C13.3799 15.98 13.5799 16.69 13.9599 17.3C14.6799 18.51 15.9899 19.25 17.3799 19.25C18.7999 19.25 20.0799 18.53 20.7999 17.31C21.1799 16.69 21.3799 15.98 21.3799 15.25C21.3799 13.04 19.5899 11.25 17.3799 11.25Z" fill="#292D32"/>
<path d="M19.1599 15.9805H15.6099C15.1999 15.9805 14.8599 15.6405 14.8599 15.2305C14.8599 14.8205 15.1999 14.4805 15.6099 14.4805H19.1599C19.5699 14.4805 19.9099 14.8205 19.9099 15.2305C19.9099 15.6405 19.5699 15.9805 19.1599 15.9805Z" fill="#292D32"/>
<path d="M17.3799 17.79C16.9699 17.79 16.6299 17.45 16.6299 17.04V13.5C16.6299 13.09 16.9699 12.75 17.3799 12.75C17.7899 12.75 18.1299 13.09 18.1299 13.5V17.05C18.1299 17.46 17.7999 17.79 17.3799 17.79Z" fill="#292D32"/>
<path d="M11.4298 23.25C10.9498 23.25 10.4698 23.13 10.0398 22.89C9.14981 22.39 8.6198 21.49 8.6198 20.48V15.13C8.6198 14.63 8.28981 13.87 7.96981 13.48L4.1698 9.48999C3.5398 8.83999 3.0498 7.75001 3.0498 6.95001V4.62C3.0498 3.01 4.26981 1.75 5.81981 1.75H19.1598C20.6898 1.75 21.9298 2.99002 21.9298 4.52002V6.73999C21.9298 7.78999 21.3098 8.97003 20.7098 9.59003L18.9098 11.18C18.7298 11.34 18.4798 11.4 18.2398 11.35C17.9698 11.28 17.6798 11.25 17.3798 11.25C15.1698 11.25 13.3798 13.04 13.3798 15.25C13.3798 15.98 13.5798 16.69 13.9598 17.31C14.2798 17.84 14.7098 18.28 15.2098 18.59C15.4298 18.73 15.5698 18.97 15.5698 19.23V19.57C15.5698 20.36 15.0898 21.47 14.2898 21.94L12.9098 22.83C12.4598 23.11 11.9398 23.25 11.4298 23.25ZM5.82981 3.25C5.11981 3.25 4.55981 3.85 4.55981 4.62V6.95001C4.55981 7.31001 4.8598 8.05001 5.2598 8.45001L9.10981 12.5C9.61981 13.13 10.1298 14.2 10.1298 15.14V20.49C10.1298 21.15 10.5898 21.48 10.7798 21.59C11.2098 21.83 11.7198 21.82 12.1098 21.58L13.5098 20.68C13.7798 20.52 14.0498 20.01 14.0698 19.65C13.5198 19.24 13.0398 18.71 12.6798 18.11C12.1598 17.26 11.8798 16.28 11.8798 15.28C11.8798 12.25 14.3498 9.78003 17.3798 9.78003C17.6598 9.78003 17.9398 9.80003 18.1998 9.84003L19.6798 8.53003C20.0198 8.18003 20.4398 7.35001 20.4398 6.76001V4.53998C20.4398 3.83998 19.8698 3.27002 19.1698 3.27002H5.82981V3.25Z" fill="#292D32"/>
</svg>
