<svg width="10" height="10" viewBox="0 0 10 10" fill="none" xmlns="http://www.w3.org/2000/svg">
<path d="M3.71258 8.61263C3.63341 8.61263 3.55425 8.58346 3.49175 8.52096C3.37091 8.40013 3.37091 8.20013 3.49175 8.0793L6.20841 5.36263C6.40841 5.16263 6.40841 4.83763 6.20841 4.63763L3.49175 1.92096C3.37091 1.80013 3.37091 1.60013 3.49175 1.4793C3.61258 1.35846 3.81258 1.35846 3.93341 1.4793L6.65008 4.19596C6.86258 4.40846 6.98341 4.69596 6.98341 5.00013C6.98341 5.3043 6.86675 5.5918 6.65008 5.8043L3.93341 8.52096C3.87091 8.5793 3.79175 8.61263 3.71258 8.61263Z" fill="#292D32"/>
</svg>
