<svg width="119" height="119" viewBox="0 0 119 119" fill="none" xmlns="http://www.w3.org/2000/svg">
<path d="M-0.000396729 17.5211C-0.000396729 7.84449 7.84409 0 17.5207 0H101.479C111.156 0 119 7.84448 119 17.5211V101.48C119 111.156 111.156 119.001 101.479 119.001H17.5208C7.84409 119.001 -0.000396729 111.156 -0.000396729 101.48V17.5211Z" fill="#EBECFF"/>
<path d="M53.3854 41.1582H51.3472C49.4517 41.1582 48.504 41.1582 47.7274 41.3661C46.6902 41.6438 45.7445 42.1897 44.9852 42.9489C44.226 43.7082 43.6801 44.6539 43.4024 45.6911C43.1945 46.4677 43.1945 47.4154 43.1945 49.3109M65.6144 41.1582H67.6526C69.5481 41.1582 70.4959 41.1582 71.2724 41.3661C72.3096 41.6438 73.2553 42.1897 74.0146 42.9489C74.7738 43.7082 75.3197 44.6539 75.5974 45.6911C75.8053 46.4677 75.8053 47.4154 75.8053 49.3109M75.8053 65.6163V67.6545C75.8053 71.4659 75.8053 73.3695 74.986 74.7881C74.4493 75.7175 73.6775 76.4894 72.748 77.026C71.3295 77.8454 69.4258 77.8454 65.6144 77.8454M43.1945 65.6163V67.6545C43.1945 71.4659 43.1945 73.3695 44.0139 74.7881C44.5505 75.7175 45.3223 76.4894 46.2518 77.026C47.6703 77.8454 49.574 77.8454 53.3854 77.8454" stroke="#282EFF" stroke-width="4.07635" stroke-linejoin="round"/>
<path d="M41.1563 65.6158H77.8435M49.309 57.4631V65.6158H69.6908V57.4631C69.6908 55.5411 69.6908 54.5811 69.0936 53.9839C68.4964 53.3867 67.5364 53.3867 65.6144 53.3867H53.3854C51.4634 53.3867 50.5034 53.3867 49.9062 53.9839C49.309 54.5811 49.309 55.5411 49.309 57.4631Z" stroke="#282EFF" stroke-width="4.07635" stroke-linecap="round" stroke-linejoin="round"/>
</svg>
