<svg width="15" height="16" viewBox="0 0 15 16" fill="none" xmlns="http://www.w3.org/2000/svg">
<path d="M7.1875 14.0938C3.65625 14.0938 0.78125 11.2188 0.78125 7.6875C0.78125 4.15625 3.65625 1.28125 7.1875 1.28125C10.7188 1.28125 13.5938 4.15625 13.5938 7.6875C13.5938 11.2188 10.7188 14.0938 7.1875 14.0938ZM7.1875 2.21875C4.16875 2.21875 1.71875 4.675 1.71875 7.6875C1.71875 10.7 4.16875 13.1562 7.1875 13.1562C10.2063 13.1562 12.6562 10.7 12.6562 7.6875C12.6562 4.675 10.2063 2.21875 7.1875 2.21875Z" fill="#898384"/>
<path d="M13.7499 14.7191C13.6312 14.7191 13.5124 14.6754 13.4187 14.5816L12.1687 13.3316C11.9874 13.1504 11.9874 12.8504 12.1687 12.6691C12.3499 12.4879 12.6499 12.4879 12.8312 12.6691L14.0812 13.9191C14.2624 14.1004 14.2624 14.4004 14.0812 14.5816C13.9874 14.6754 13.8687 14.7191 13.7499 14.7191Z" fill="#898384"/>
</svg>
