<svg width="55" height="54" viewBox="0 0 55 54" fill="none" xmlns="http://www.w3.org/2000/svg">
<rect x="3.56636" y="3.17134" width="48.0137" height="48.0137" rx="24.0069" fill="#C2F3EA"/>
<rect x="3.56636" y="3.17134" width="48.0137" height="48.0137" rx="24.0069" stroke="#EDFFFC" stroke-width="5.33486"/>
<path d="M33.2292 41.41C32.6557 41.41 31.9355 41.2367 31.0419 40.7032L28.0543 38.9293C27.8276 38.7959 27.3208 38.7959 27.0941 38.9293L24.1065 40.7032C22.2127 41.8235 21.0657 41.3567 20.5589 40.9833C20.052 40.6098 19.2518 39.6495 19.7453 37.5156L20.4522 34.4347C20.5055 34.1946 20.3722 33.7412 20.1988 33.5545L17.718 31.0737C16.3843 29.74 16.491 28.5797 16.6777 27.9929C16.8645 27.406 17.4513 26.4057 19.3052 26.0856L22.4928 25.5522C22.7195 25.5121 23.0796 25.2454 23.173 25.0453L24.9334 21.5243C25.8004 19.8038 26.9474 19.5371 27.5609 19.5371C28.1744 19.5371 29.3214 19.7905 30.1883 21.5243L31.9488 25.0453C32.0555 25.2454 32.4156 25.5121 32.629 25.5522L35.8166 26.0856C37.6704 26.3924 38.2573 27.406 38.444 27.9929C38.6307 28.5797 38.7374 29.74 37.4037 31.0737L34.923 33.5545C34.7496 33.7278 34.6162 34.1946 34.6696 34.4347L35.3765 37.5023C35.8699 39.6495 35.083 40.5965 34.5629 40.9699C34.3228 41.1833 33.8693 41.41 33.2292 41.41ZM27.5742 36.8354C28.1077 36.8354 28.6412 36.9554 29.068 37.2088L32.0555 38.9827C32.8424 39.4495 33.3092 39.4495 33.4025 39.3694C33.5092 39.2894 33.6426 38.8493 33.4426 37.969L32.7357 34.9015C32.5223 33.9946 32.869 32.8209 33.5226 32.1674L36.0033 29.6867C36.4968 29.1932 36.6035 28.8064 36.5501 28.633C36.4968 28.4597 36.19 28.2063 35.4965 28.0996L32.3089 27.5661C31.4553 27.4194 30.5484 26.7525 30.1616 25.979L28.4011 22.4579C28.0944 21.8578 27.7609 21.5777 27.5609 21.5777C27.3608 21.5777 27.0274 21.8444 26.7206 22.4579L24.9601 25.979C24.5734 26.7525 23.6664 27.4194 22.8128 27.5661L19.6253 28.0996C18.9317 28.2196 18.625 28.4597 18.5716 28.633C18.5183 28.8064 18.625 29.1932 19.1185 29.6867L21.5992 32.1674C22.2527 32.8209 22.5994 34.0079 22.386 34.9015L21.6792 37.9824C21.4791 38.876 21.6125 39.3161 21.7192 39.3828C21.8259 39.4628 22.2927 39.4628 23.0662 38.996L26.0538 37.2222C26.5072 36.9688 27.0407 36.8354 27.5742 36.8354Z" fill="#008E75"/>
<path d="M19.5711 24.1784C19.0243 24.1784 18.5708 23.7249 18.5708 23.1781V13.8421C18.5708 13.2953 19.0243 12.8418 19.5711 12.8418C20.1179 12.8418 20.5714 13.2953 20.5714 13.8421V23.1781C20.5714 23.7249 20.1179 24.1784 19.5711 24.1784Z" fill="#008E75"/>
<path d="M35.5757 24.1784C35.0289 24.1784 34.5754 23.7249 34.5754 23.1781V13.8421C34.5754 13.2953 35.0289 12.8418 35.5757 12.8418C36.1225 12.8418 36.576 13.2953 36.576 13.8421V23.1781C36.576 23.7249 36.1225 24.1784 35.5757 24.1784Z" fill="#008E75"/>
<path d="M27.5735 17.5098C27.0267 17.5098 26.5732 17.0563 26.5732 16.5095V13.8421C26.5732 13.2953 27.0267 12.8418 27.5735 12.8418C28.1204 12.8418 28.5738 13.2953 28.5738 13.8421V16.5095C28.5738 17.0563 28.1204 17.5098 27.5735 17.5098Z" fill="#008E75"/>
</svg>
