<svg width="64" height="64" viewBox="0 0 64 64" fill="none" xmlns="http://www.w3.org/2000/svg">
<rect width="64" height="64" rx="32" fill="#F9F5FF"/>
<path d="M35 42.75H29C23.57 42.75 21.25 40.43 21.25 35V29C21.25 23.57 23.57 21.25 29 21.25H35C40.43 21.25 42.75 23.57 42.75 29V35C42.75 40.43 40.43 42.75 35 42.75ZM29 22.75C24.39 22.75 22.75 24.39 22.75 29V35C22.75 39.61 24.39 41.25 29 41.25H35C39.61 41.25 41.25 39.61 41.25 35V29C41.25 24.39 39.61 22.75 35 22.75H29Z" fill="#6E2ADA"/>
<path d="M32.0001 38.9501C31.7601 38.9501 31.5201 38.8901 31.3201 38.7801C30.1601 38.1501 28.1101 37.4701 26.8201 37.3001L26.6301 37.2701C25.6501 37.1501 24.8701 36.2701 24.8701 35.2601V27.5601C24.8701 26.9901 25.1101 26.4401 25.5201 26.0601C25.9401 25.6801 26.4801 25.4901 27.0601 25.5401C28.5201 25.6601 30.6401 26.3601 31.8901 27.1401L31.9901 27.2001L32.0302 27.1701C33.2902 26.3801 35.4101 25.6701 36.8801 25.5401C36.9001 25.5401 36.9601 25.5401 36.9801 25.5401C37.5001 25.4901 38.0601 25.6901 38.4701 26.0601C38.8901 26.4401 39.1201 26.9701 39.1201 27.5501V35.2401C39.1201 36.2401 38.3401 37.1201 37.3501 37.2501L37.1401 37.2801C35.8601 37.4501 33.8001 38.1301 32.6601 38.7601C32.4701 38.9001 32.2401 38.9501 32.0001 38.9501ZM26.8901 27.0501C26.7501 27.0501 26.6301 27.1001 26.5401 27.1801C26.4301 27.2801 26.3801 27.4201 26.3801 27.5701V35.2701C26.3801 35.5101 26.6001 35.7601 26.8301 35.7901L27.0201 35.8201C28.4801 36.0201 30.7201 36.7501 32.0201 37.4601C33.2301 36.7601 35.4801 36.0101 36.9501 35.8201L37.1701 35.7901C37.4001 35.7601 37.6201 35.5101 37.6201 35.2701V27.5801C37.6201 27.4201 37.5601 27.2901 37.4601 27.1901C37.3501 27.0901 37.2101 27.0501 37.0501 27.0601C37.0301 27.0601 36.9701 27.0601 36.9501 27.0601C35.7901 27.1601 33.8801 27.8001 32.8401 28.4601L32.7401 28.5201C32.3001 28.7901 31.6801 28.7901 31.2601 28.5301L31.1101 28.4401C30.0601 27.7801 28.1501 27.1501 26.9401 27.0501C26.9201 27.0501 26.9101 27.0501 26.8901 27.0501Z" fill="#6E2ADA"/>
<path d="M32 38.4101C31.59 38.4101 31.25 38.0701 31.25 37.6601V28.1001C31.25 27.6901 31.59 27.3501 32 27.3501C32.41 27.3501 32.75 27.6901 32.75 28.1001V37.6601C32.75 38.0801 32.41 38.4101 32 38.4101Z" fill="#6E2ADA"/>
</svg>
